<svg width="44" height="48" viewBox="0 0 44 48" fill="none" xmlns="http://www.w3.org/2000/svg">
<path d="M27.288 25.568C30.104 27.9147 31.512 30.976 31.512 34.752C31.512 36.4587 31.2027 38.048 30.584 39.52C29.9653 40.992 29.1227 42.272 28.056 43.36C26.968 44.4267 25.6987 45.2693 24.248 45.888C22.7973 46.5067 21.2293 46.816 19.544 46.816C17.8587 46.816 16.2907 46.5067 14.84 45.888C13.3893 45.2693 12.1307 44.4267 11.064 43.36C9.976 42.272 9.12267 40.992 8.504 39.52C7.88533 38.048 7.576 36.4587 7.576 34.752C7.576 32.8747 7.896 31.2533 8.536 29.888C9.176 28.5013 10.104 27.2427 11.32 26.112L14.712 29.6C14.0293 30.1973 13.464 30.912 13.016 31.744C12.5467 32.576 12.312 33.568 12.312 34.72C12.312 35.7227 12.4827 36.6613 12.824 37.536C13.1653 38.3893 13.656 39.136 14.296 39.776C14.936 40.416 15.704 40.9173 16.6 41.28C17.4747 41.6427 18.456 41.824 19.544 41.824C20.632 41.824 21.624 41.6427 22.52 41.28C23.3947 40.9173 24.152 40.416 24.792 39.776C25.432 39.136 25.9227 38.3893 26.264 37.536C26.6053 36.6613 26.776 35.7227 26.776 34.72C26.776 33.504 26.5307 32.448 26.04 31.552C25.5493 30.656 24.8453 29.8453 23.928 29.12L27.288 25.568Z" fill="#1C1B1F"/>
<path d="M27.692 14.844C27.692 16.06 27.4787 17.18 27.052 18.204C26.6467 19.2493 26.0707 20.1453 25.324 20.892C24.5987 21.66 23.724 22.2467 22.7 22.652C21.676 23.0787 20.556 23.292 19.34 23.292C18.124 23.292 17.004 23.0787 15.98 22.652C14.956 22.2467 14.0707 21.66 13.324 20.892C12.5987 20.1453 12.0227 19.2493 11.596 18.204C11.1907 17.18 10.988 16.06 10.988 14.844C10.988 13.628 11.1907 12.4973 11.596 11.452C12.0227 10.428 12.5987 9.532 13.324 8.764C14.0707 8.01733 14.956 7.43067 15.98 7.004C17.004 6.59867 18.124 6.396 19.34 6.396C20.556 6.396 21.676 6.59867 22.7 7.004C23.724 7.43067 24.5987 8.01733 25.324 8.764C26.0707 9.532 26.6467 10.428 27.052 11.452C27.4787 12.4973 27.692 13.628 27.692 14.844ZM15.468 14.844C15.468 15.3347 15.5533 15.7933 15.724 16.22C15.916 16.668 16.172 17.0627 16.492 17.404C16.8333 17.7453 17.2387 18.012 17.708 18.204C18.1987 18.396 18.7427 18.492 19.34 18.492C19.9373 18.492 20.4707 18.396 20.94 18.204C21.4093 18.012 21.8147 17.7453 22.156 17.404C22.4973 17.0627 22.7533 16.668 22.924 16.22C23.116 15.7933 23.212 15.3347 23.212 14.844C23.212 14.3533 23.116 13.884 22.924 13.436C22.7533 13.0093 22.4973 12.6253 22.156 12.284C21.8147 11.9427 21.4093 11.676 20.94 11.484C20.4707 11.292 19.9373 11.196 19.34 11.196C18.7427 11.196 18.1987 11.292 17.708 11.484C17.2387 11.676 16.8333 11.9427 16.492 12.284C16.172 12.6253 15.916 13.0093 15.724 13.436C15.5533 13.884 15.468 14.3533 15.468 14.844Z" fill="#F4E561"/>
<path d="M38.108 23.192C37.2547 23.192 36.5293 22.8933 35.932 22.296C35.3347 21.6987 35.036 20.9733 35.036 20.12C35.036 19.2667 35.3347 18.5413 35.932 17.944C36.5293 17.3467 37.2547 17.048 38.108 17.048C38.9613 17.048 39.6867 17.3467 40.284 17.944C40.8813 18.5413 41.18 19.2667 41.18 20.12C41.18 20.9733 40.8813 21.6987 40.284 22.296C39.6867 22.8933 38.9613 23.192 38.108 23.192Z" fill="#1C1B1F"/>
<circle cx="19.5" cy="14.5" r="4.5" fill="#F4E561"/>
</svg>
